<svg width="24" height="24" viewBox="0 0 24 24" fill="none" xmlns="http://www.w3.org/2000/svg">
<g style="mix-blend-mode:multiply" opacity="0.3">
<path d="M12 22C17.5228 22 22 17.5228 22 12C22 6.47715 17.5228 2 12 2C6.47715 2 2 6.47715 2 12C2 17.5228 6.47715 22 12 22Z" fill="#891928"/>
</g>
<path d="M12 3.5C13.6811 3.5 15.3245 3.99852 16.7224 4.93251C18.1202 5.8665 19.2096 7.19402 19.853 8.74719C20.4963 10.3004 20.6647 12.0094 20.3367 13.6583C20.0087 15.3071 19.1992 16.8217 18.0104 18.0104C16.8217 19.1992 15.3071 20.0087 13.6583 20.3367C12.0094 20.6646 10.3004 20.4963 8.74719 19.853C7.19402 19.2096 5.86651 18.1202 4.93251 16.7223C3.99852 15.3245 3.5 13.6811 3.5 12C3.50265 9.74647 4.39903 7.586 5.99252 5.99252C7.58601 4.39903 9.74648 3.50265 12 3.5ZM12 2C10.0222 2 8.08879 2.58649 6.4443 3.6853C4.79981 4.78412 3.51809 6.3459 2.76121 8.17317C2.00433 10.0004 1.8063 12.0111 2.19215 13.9509C2.578 15.8907 3.53041 17.6725 4.92894 19.0711C6.32746 20.4696 8.10929 21.422 10.0491 21.8079C11.9889 22.1937 13.9996 21.9957 15.8268 21.2388C17.6541 20.4819 19.2159 19.2002 20.3147 17.5557C21.4135 15.9112 22 13.9778 22 12C22 10.6868 21.7413 9.38642 21.2388 8.17317C20.7363 6.95991 19.9997 5.85752 19.0711 4.92893C18.1425 4.00035 17.0401 3.26375 15.8268 2.7612C14.6136 2.25866 13.3132 2 12 2Z" fill="#891928"/>
<path d="M12.59 15.9399H10.98V17.5799H12.59V15.9399Z" fill="#891928"/>
<path d="M15.19 8.31022C15.0505 7.95003 14.8278 7.62793 14.54 7.37022C14.2488 7.09729 13.9098 6.88034 13.54 6.73022C13.0805 6.57052 12.5965 6.49268 12.11 6.50022C11.5483 6.48392 10.9895 6.58614 10.47 6.80022C10.0371 6.97225 9.65024 7.24273 9.34001 7.59022C9.03614 7.93039 8.81082 8.33325 8.68001 8.77022C8.53568 9.24036 8.45825 9.72849 8.45001 10.2202V10.3002H9.78001V10.2302C9.78487 9.89092 9.83876 9.5541 9.94001 9.23022C10.0295 8.94496 10.1683 8.67759 10.35 8.44022C10.5366 8.22493 10.7689 8.05409 11.03 7.94022C11.3466 7.80842 11.6871 7.74373 12.03 7.75022C12.3204 7.74413 12.6092 7.79509 12.88 7.90022C13.1046 7.98901 13.3113 8.11776 13.49 8.28022C13.6542 8.43252 13.7808 8.62078 13.86 8.83022C13.9409 9.0373 13.9817 9.2579 13.98 9.48022C13.985 9.69127 13.9511 9.90144 13.88 10.1002C13.8197 10.2793 13.732 10.448 13.62 10.6002C13.5126 10.7565 13.3848 10.8978 13.24 11.0202C13.07 11.1602 12.91 11.3102 12.77 11.4502C12.504 11.6732 12.2565 11.9173 12.03 12.1802C11.8379 12.4138 11.6735 12.6688 11.54 12.9402C11.4081 13.2199 11.314 13.5158 11.26 13.8202C11.1923 14.1863 11.1588 14.5579 11.16 14.9302V15.0002H12.45V14.9302C12.4464 14.6117 12.4731 14.2936 12.53 13.9802C12.5733 13.7454 12.6543 13.5191 12.77 13.3102C12.9027 13.0928 13.0642 12.8944 13.25 12.7202C13.45 12.5302 13.71 12.3002 14.02 12.0402C14.33 11.7802 14.37 11.7302 14.54 11.5702C14.7151 11.3988 14.8694 11.2075 15 11.0002C15.129 10.7861 15.233 10.558 15.31 10.3202C15.3939 10.0414 15.4343 9.75134 15.43 9.46022C15.424 9.06509 15.3426 8.67475 15.19 8.31022Z" fill="#891928"/>
</svg>
